# xmcd
#
# Track frame offsets: 
#        150
#        13775
#        28455
#        38802
#        55927
#        68517
#        88920
#        99187
#        113135
#        128585
#        142992
#        158487
#        170067
#        183732
#        198472
#        214070
#
# Disc length: 2973 seconds
#
# Revision: 2
# Processed by: cddbd v1.5.2PL0 Copyright (c) Steve Scherf et al.
# Submitted via: ExactAudioCopyFreeDBPlugin 1.0
#
DISCID=dd0b9b10
DTITLE=Various Artist - World Of Country Music
DYEAR=1998
DGENRE=Country
TTITLE0=Kenny Rogers - Ruby, dont't take your love to town
TTITLE1=Gene Watson - Old Loves Never Die
TTITLE2=Willie Nelson - Funny How Times Slip Away
TTITLE3=Nanci Griffith - Listen To Radio
TTITLE4=Tracy Bird - That's The Thing about a memory
TTITLE5=Steve Earle - Copperhead Road
TTITLE6=Billy Crash Craddock - Rub It In
TTITLE7=Mark Chesnutt - Brother Jukebox
TTITLE8=George Strait - So Much Like My Dad
TTITLE9=Don Williams - Amanda
TTITLE10=Patty Loveless - Can't Stop Myself from loving you
TTITLE11=Freddy Fender - Befor The Next Teardrop Falls
TTITLE12=Joe Ely - If You Were A Bluebird
TTITLE13=Steve Wariner - Life's  Highway
TTITLE14=Waylon Jennings - The Devils Right Hand
TTITLE15=Roy Orbison - It's To Late
EXTD=
EXTT0=
EXTT1=
EXTT2=
EXTT3=
EXTT4=
EXTT5=
EXTT6=
EXTT7=
EXTT8=
EXTT9=
EXTT10=
EXTT11=
EXTT12=
EXTT13=
EXTT14=
EXTT15=
PLAYORDER=
